<?xml version="1.0" encoding="UTF-8" standalone="no"?>
<!-- Created with Sodipodi ("http://www.sodipodi.com/") -->
<svg xmlns:dc="http://purl.org/dc/elements/1.1/" xmlns:cc="http://creativecommons.org/ns#" xmlns:rdf="http://www.w3.org/1999/02/22-rdf-syntax-ns#" xmlns:svg="http://www.w3.org/2000/svg" xmlns="http://www.w3.org/2000/svg" xmlns:xlink="http://www.w3.org/1999/xlink" xmlns:sodipodi="http://sodipodi.sourceforge.net/DTD/sodipodi-0.dtd" xmlns:inkscape="http://www.inkscape.org/namespaces/inkscape" height="363.85596" id="svg1273" sodipodi:docbase="/home/franck/Dessins/Vectoriels" sodipodi:docname="gauffre_au_chocolat_01.svg" sodipodi:version="0.32" space="preserve" width="394.54129" inkscape:version="0.46" inkscape:output_extension="org.inkscape.output.svg.inkscape" version="1.0" inkscape:export-filename="C:\joanna\Gfx\drawings_vector\admin\thumbs\Franck Doucet\gauffre_au_chocolat_01.png" inkscape:export-xdpi="49.500523" inkscape:export-ydpi="49.500523">
  <defs id="defs1275">
    <inkscape:perspective sodipodi:type="inkscape:persp3d" inkscape:vp_x="0 : 526.18109 : 1" inkscape:vp_y="0 : 1000 : 0" inkscape:vp_z="744.09448 : 526.18109 : 1" inkscape:persp3d-origin="372.04724 : 350.78739 : 1" id="perspective71"/>
    <linearGradient id="linearGradient1435">
      <stop id="stop1436" offset="0" style="stop-color:#6b4514;stop-opacity:0;"/>
      <stop id="stop1437" offset="1" style="stop-color:#cfad7a;stop-opacity:1;"/>
    </linearGradient>
    <linearGradient id="linearGradient1350">
      <stop id="stop1351" offset="0" style="stop-color:#8f5517;stop-opacity:1;"/>
      <stop id="stop1352" offset="1" style="stop-color:#ffc700;stop-opacity:1;"/>
    </linearGradient>
    <linearGradient id="linearGradient1353" xlink:href="#linearGradient1350" gradientTransform="matrix(1.0646016,0,0,0.9393185,-222.3286,-478.21412)" x1="215.35557" y1="686.87751" x2="570.89556" y2="686.87751" gradientUnits="userSpaceOnUse"/>
    <linearGradient id="linearGradient1354" xlink:href="#linearGradient1350" gradientTransform="matrix(1.248749,0,0,0.8008015,-222.3286,-478.21412)" x1="178.04107" y1="894.14592" x2="492.81754" y2="894.14592" gradientUnits="userSpaceOnUse"/>
    <linearGradient id="linearGradient1356" x1="241.279" x2="286.84166" xlink:href="#linearGradient1350" y1="568.83118" y2="567.51687" gradientTransform="scale(1.0320936,0.9689044)" gradientUnits="userSpaceOnUse"/>
    <radialGradient cx="0.32927123" cy="0.37500498" fx="0.32927123" fy="0.37500498" id="radialGradient1357" r="0.3964096" spreadMethod="reflect" xlink:href="#linearGradient1435"/>
    <linearGradient id="linearGradient1366" x1="453.29253" x2="166.29642" xlink:href="#linearGradient1350" y1="833.29176" y2="1267.0607" gradientTransform="matrix(1.3498607,0,0,0.7408172,-222.3286,-478.21412)" gradientUnits="userSpaceOnUse"/>
    <radialGradient cx="-187.79943" cy="609.41247" fx="-187.79943" fy="609.41247" gradientTransform="scale(0.8700184,1.149401)" id="radialGradient1377" r="37.397968" xlink:href="#linearGradient1350" gradientUnits="userSpaceOnUse"/>
    <linearGradient id="linearGradient1434" spreadMethod="reflect" x1="367.17728" x2="380.09369" xlink:href="#linearGradient1435" y1="643.00563" y2="680.24141" gradientTransform="matrix(1.1249147,0,0,0.8889563,-222.3286,-478.21412)" gradientUnits="userSpaceOnUse"/>
    <linearGradient inkscape:collect="always" xlink:href="#linearGradient1350" id="linearGradient2444" x1="241.279" y1="568.83118" x2="286.84166" y2="567.51687" gradientTransform="scale(1.0320936,0.9689044)" gradientUnits="userSpaceOnUse"/>
    <radialGradient inkscape:collect="always" xlink:href="#linearGradient1350" id="radialGradient2446" gradientTransform="scale(0.8700184,1.149401)" cx="-187.79943" cy="609.41247" fx="-187.79943" fy="609.41247" r="37.397968" gradientUnits="userSpaceOnUse"/>
    <linearGradient inkscape:collect="always" xlink:href="#linearGradient1350" id="linearGradient2448" x1="241.279" y1="568.83118" x2="286.84166" y2="567.51687" gradientTransform="scale(1.0320936,0.9689044)" gradientUnits="userSpaceOnUse"/>
    <radialGradient inkscape:collect="always" xlink:href="#linearGradient1350" id="radialGradient2450" gradientTransform="scale(0.8700184,1.149401)" cx="-187.79943" cy="609.41247" fx="-187.79943" fy="609.41247" r="37.397968" gradientUnits="userSpaceOnUse"/>
    <linearGradient inkscape:collect="always" xlink:href="#linearGradient1350" id="linearGradient2452" x1="241.279" y1="568.83118" x2="286.84166" y2="567.51687" gradientTransform="scale(1.0320936,0.9689044)" gradientUnits="userSpaceOnUse"/>
    <radialGradient inkscape:collect="always" xlink:href="#linearGradient1350" id="radialGradient2454" gradientTransform="scale(0.8700184,1.149401)" cx="-187.79943" cy="609.41247" fx="-187.79943" fy="609.41247" r="37.397968" gradientUnits="userSpaceOnUse"/>
    <linearGradient inkscape:collect="always" xlink:href="#linearGradient1350" id="linearGradient2456" x1="241.279" y1="568.83118" x2="286.84166" y2="567.51687" gradientTransform="scale(1.0320936,0.9689044)" gradientUnits="userSpaceOnUse"/>
    <radialGradient inkscape:collect="always" xlink:href="#linearGradient1350" id="radialGradient2458" gradientTransform="scale(0.8700184,1.149401)" cx="-187.79943" cy="609.41247" fx="-187.79943" fy="609.41247" r="37.397968" gradientUnits="userSpaceOnUse"/>
    <linearGradient inkscape:collect="always" xlink:href="#linearGradient1350" id="linearGradient2460" x1="241.279" y1="568.83118" x2="286.84166" y2="567.51687" gradientTransform="scale(1.0320936,0.9689044)" gradientUnits="userSpaceOnUse"/>
    <radialGradient inkscape:collect="always" xlink:href="#linearGradient1350" id="radialGradient2462" gradientTransform="scale(0.8700184,1.149401)" cx="-187.79943" cy="609.41247" fx="-187.79943" fy="609.41247" r="37.397968" gradientUnits="userSpaceOnUse"/>
    <linearGradient inkscape:collect="always" xlink:href="#linearGradient1350" id="linearGradient2464" x1="241.279" y1="568.83118" x2="286.84166" y2="567.51687" gradientTransform="scale(1.0320936,0.9689044)" gradientUnits="userSpaceOnUse"/>
    <radialGradient inkscape:collect="always" xlink:href="#linearGradient1350" id="radialGradient2466" gradientTransform="scale(0.8700184,1.149401)" cx="-187.79943" cy="609.41247" fx="-187.79943" fy="609.41247" r="37.397968" gradientUnits="userSpaceOnUse"/>
    <linearGradient inkscape:collect="always" xlink:href="#linearGradient1350" id="linearGradient2468" x1="241.279" y1="568.83118" x2="286.84166" y2="567.51687" gradientTransform="scale(1.0320936,0.9689044)" gradientUnits="userSpaceOnUse"/>
    <radialGradient inkscape:collect="always" xlink:href="#linearGradient1350" id="radialGradient2470" gradientTransform="scale(0.8700184,1.149401)" cx="-187.79943" cy="609.41247" fx="-187.79943" fy="609.41247" r="37.397968" gradientUnits="userSpaceOnUse"/>
    <linearGradient inkscape:collect="always" xlink:href="#linearGradient1350" id="linearGradient2472" x1="241.279" y1="568.83118" x2="286.84166" y2="567.51687" gradientTransform="scale(1.0320936,0.9689044)" gradientUnits="userSpaceOnUse"/>
    <radialGradient inkscape:collect="always" xlink:href="#linearGradient1350" id="radialGradient2474" gradientTransform="scale(0.8700184,1.149401)" cx="-187.79943" cy="609.41247" fx="-187.79943" fy="609.41247" r="37.397968" gradientUnits="userSpaceOnUse"/>
    <linearGradient inkscape:collect="always" xlink:href="#linearGradient1350" id="linearGradient2476" x1="241.279" y1="568.83118" x2="286.84166" y2="567.51687" gradientTransform="scale(1.0320936,0.9689044)" gradientUnits="userSpaceOnUse"/>
    <radialGradient inkscape:collect="always" xlink:href="#linearGradient1350" id="radialGradient2478" gradientTransform="scale(0.8700184,1.149401)" cx="-187.79943" cy="609.41247" fx="-187.79943" fy="609.41247" r="37.397968" gradientUnits="userSpaceOnUse"/>
    <linearGradient inkscape:collect="always" xlink:href="#linearGradient1350" id="linearGradient2480" x1="241.279" y1="568.83118" x2="286.84166" y2="567.51687" gradientTransform="scale(1.0320936,0.9689044)" gradientUnits="userSpaceOnUse"/>
    <radialGradient inkscape:collect="always" xlink:href="#linearGradient1350" id="radialGradient2482" gradientTransform="scale(0.8700184,1.149401)" cx="-187.79943" cy="609.41247" fx="-187.79943" fy="609.41247" r="37.397968" gradientUnits="userSpaceOnUse"/>
    <linearGradient inkscape:collect="always" xlink:href="#linearGradient1350" id="linearGradient2484" x1="241.279" y1="568.83118" x2="286.84166" y2="567.51687" gradientTransform="scale(1.0320936,0.9689044)" gradientUnits="userSpaceOnUse"/>
    <radialGradient inkscape:collect="always" xlink:href="#linearGradient1350" id="radialGradient2486" gradientTransform="scale(0.8700184,1.149401)" cx="-187.79943" cy="609.41247" fx="-187.79943" fy="609.41247" r="37.397968" gradientUnits="userSpaceOnUse"/>
    <linearGradient inkscape:collect="always" xlink:href="#linearGradient1350" id="linearGradient2488" x1="241.279" y1="568.83118" x2="286.84166" y2="567.51687" gradientTransform="scale(1.0320936,0.9689044)" gradientUnits="userSpaceOnUse"/>
    <radialGradient inkscape:collect="always" xlink:href="#linearGradient1350" id="radialGradient2490" gradientTransform="scale(0.8700184,1.149401)" cx="-187.79943" cy="609.41247" fx="-187.79943" fy="609.41247" r="37.397968" gradientUnits="userSpaceOnUse"/>
    <linearGradient inkscape:collect="always" xlink:href="#linearGradient1350" id="linearGradient2492" x1="241.279" y1="568.83118" x2="286.84166" y2="567.51687" gradientTransform="scale(1.0320936,0.9689044)" gradientUnits="userSpaceOnUse"/>
    <radialGradient inkscape:collect="always" xlink:href="#linearGradient1350" id="radialGradient2494" gradientTransform="scale(0.8700184,1.149401)" cx="-187.79943" cy="609.41247" fx="-187.79943" fy="609.41247" r="37.397968" gradientUnits="userSpaceOnUse"/>
    <linearGradient inkscape:collect="always" xlink:href="#linearGradient1350" id="linearGradient2496" x1="241.279" y1="568.83118" x2="286.84166" y2="567.51687" gradientTransform="scale(1.0320936,0.9689044)" gradientUnits="userSpaceOnUse"/>
    <radialGradient inkscape:collect="always" xlink:href="#linearGradient1350" id="radialGradient2498" gradientTransform="scale(0.8700184,1.149401)" cx="-187.79943" cy="609.41247" fx="-187.79943" fy="609.41247" r="37.397968" gradientUnits="userSpaceOnUse"/>
    <linearGradient inkscape:collect="always" xlink:href="#linearGradient1435" id="linearGradient2500" spreadMethod="reflect" x1="279.72991" y1="733.20503" x2="288.72416" y2="759.1339" gradientTransform="matrix(1.6169493,0,0,1.2788328,-351.6054,-758.63892)" gradientUnits="userSpaceOnUse"/>
  </defs>
  <sodipodi:namedview id="base" showgrid="false" inkscape:zoom="0.43901235" inkscape:cx="372.04724" inkscape:cy="526.18109" inkscape:window-width="640" inkscape:window-height="667" inkscape:window-x="22" inkscape:window-y="29" inkscape:current-layer="svg1273"/>
  <g id="g1411" transform="translate(-175.5569,-517.46899)">
    <rect height="54.333496" id="rect1412" ry="15.059814" style="font-size:12px;fill:url(#linearGradient2444);fill-rule:evenodd" transform="translate(141.7395,17.71741)" width="57.876976" x="244.50076" y="507.84601"/>
    <path d="M -170.885,667.7115 C -172.0806,670.0532 -174.5612,676.6759 -170.0278,683.0278 L -152.2984,703.8386 C -145.8646,704.7495 -145.6228,700.4987 -145.206,695.2896 L -146.0759,683.8555 C -144.5526,677.6688 -146.2299,669.6364 -156.1527,671.0203 L -170.885,667.7115 z" id="path1413" sodipodi:nodetypes="ccccccc" style="font-size:12px;fill:url(#radialGradient2446);fill-rule:evenodd" transform="matrix(0.662139,-0.749381,0.749381,0.662139,0,0)"/>
  </g>
  <g id="g1426" transform="translate(-222.3286,-478.21412)">
    <rect height="54.333496" id="rect1427" ry="15.059814" style="font-size:12px;fill:url(#linearGradient2448);fill-rule:evenodd" transform="translate(141.7395,17.71741)" width="57.876976" x="244.50076" y="507.84601"/>
    <path d="M -170.885,667.7115 C -172.0806,670.0532 -174.5612,676.6759 -170.0278,683.0278 L -152.2984,703.8386 C -145.8646,704.7495 -145.6228,700.4987 -145.206,695.2896 L -146.0759,683.8555 C -144.5526,677.6688 -146.2299,669.6364 -156.1527,671.0203 L -170.885,667.7115 z" id="path1428" sodipodi:nodetypes="ccccccc" style="font-size:12px;fill:url(#radialGradient2450);fill-rule:evenodd" transform="matrix(0.662139,-0.749381,0.749381,0.662139,0,0)"/>
  </g>
  <g id="g1408" transform="translate(-127.94998,-475.70851)">
    <rect height="54.333496" id="rect1409" ry="15.059814" style="font-size:12px;fill:url(#linearGradient2452);fill-rule:evenodd" transform="translate(141.7395,17.71741)" width="57.876976" x="244.50076" y="507.84601"/>
    <path d="M -170.885,667.7115 C -172.0806,670.0532 -174.5612,676.6759 -170.0278,683.0278 L -152.2984,703.8386 C -145.8646,704.7495 -145.6228,700.4987 -145.206,695.2896 L -146.0759,683.8555 C -144.5526,677.6688 -146.2299,669.6364 -156.1527,671.0203 L -170.885,667.7115 z" id="path1410" sodipodi:nodetypes="ccccccc" style="font-size:12px;fill:url(#radialGradient2454);fill-rule:evenodd" transform="matrix(0.662139,-0.749381,0.749381,0.662139,0,0)"/>
  </g>
  <g id="g1414" transform="translate(-79.5079,-429.77207)">
    <rect height="54.333496" id="rect1415" ry="15.059814" style="font-size:12px;fill:url(#linearGradient2456);fill-rule:evenodd" transform="translate(141.7395,17.71741)" width="57.876976" x="244.50076" y="507.84601"/>
    <path d="M -170.885,667.7115 C -172.0806,670.0532 -174.5612,676.6759 -170.0278,683.0278 L -152.2984,703.8386 C -145.8646,704.7495 -145.6228,700.4987 -145.206,695.2896 L -146.0759,683.8555 C -144.5526,677.6688 -146.2299,669.6364 -156.1527,671.0203 L -170.885,667.7115 z" id="path1416" sodipodi:nodetypes="ccccccc" style="font-size:12px;fill:url(#radialGradient2458);fill-rule:evenodd" transform="matrix(0.662139,-0.749381,0.749381,0.662139,0,0)"/>
  </g>
  <g id="g1399" transform="translate(-169.71042,-434.78329)">
    <rect height="54.333496" id="rect1400" ry="15.059814" style="font-size:12px;fill:url(#linearGradient2460);fill-rule:evenodd" transform="translate(141.7395,17.71741)" width="57.876976" x="244.50076" y="507.84601"/>
    <path d="M -170.885,667.7115 C -172.0806,670.0532 -174.5612,676.6759 -170.0278,683.0278 L -152.2984,703.8386 C -145.8646,704.7495 -145.6228,700.4987 -145.206,695.2896 L -146.0759,683.8555 C -144.5526,677.6688 -146.2299,669.6364 -156.1527,671.0203 L -170.885,667.7115 z" id="path1401" sodipodi:nodetypes="ccccccc" style="font-size:12px;fill:url(#radialGradient2462);fill-rule:evenodd" transform="matrix(0.662139,-0.749381,0.749381,0.662139,0,0)"/>
  </g>
  <g id="g1405" transform="translate(-124.60914,-387.1764)">
    <rect height="54.333496" id="rect1406" ry="15.059814" style="font-size:12px;fill:url(#linearGradient2464);fill-rule:evenodd" transform="translate(141.7395,17.71741)" width="57.876976" x="244.50076" y="507.84601"/>
    <path d="M -170.885,667.7115 C -172.0806,670.0532 -174.5612,676.6759 -170.0278,683.0278 L -152.2984,703.8386 C -145.8646,704.7495 -145.6228,700.4987 -145.206,695.2896 L -146.0759,683.8555 C -144.5526,677.6688 -146.2299,669.6364 -156.1527,671.0203 L -170.885,667.7115 z" id="path1407" sodipodi:nodetypes="ccccccc" style="font-size:12px;fill:url(#radialGradient2466);fill-rule:evenodd" transform="matrix(0.662139,-0.749381,0.749381,0.662139,0,0)"/>
  </g>
  <g id="g1402" transform="translate(-217.31735,-391.35243)">
    <rect height="54.333496" id="rect1403" ry="15.059814" style="font-size:12px;fill:url(#linearGradient2468);fill-rule:evenodd" transform="translate(141.7395,17.71741)" width="57.876976" x="244.50076" y="507.84601"/>
    <path d="M -170.885,667.7115 C -172.0806,670.0532 -174.5612,676.6759 -170.0278,683.0278 L -152.2984,703.8386 C -145.8646,704.7495 -145.6228,700.4987 -145.206,695.2896 L -146.0759,683.8555 C -144.5526,677.6688 -146.2299,669.6364 -156.1527,671.0203 L -170.885,667.7115 z" id="path1404" sodipodi:nodetypes="ccccccc" style="font-size:12px;fill:url(#radialGradient2470);fill-rule:evenodd" transform="matrix(0.662139,-0.749381,0.749381,0.662139,0,0)"/>
  </g>
  <g id="g1420" transform="translate(-172.21607,-348.75672)">
    <rect height="54.333496" id="rect1421" ry="15.059814" style="font-size:12px;fill:url(#linearGradient2472);fill-rule:evenodd" transform="translate(141.7395,17.71741)" width="57.876976" x="244.50076" y="507.84601"/>
    <path d="M -170.885,667.7115 C -172.0806,670.0532 -174.5612,676.6759 -170.0278,683.0278 L -152.2984,703.8386 C -145.8646,704.7495 -145.6228,700.4987 -145.206,695.2896 L -146.0759,683.8555 C -144.5526,677.6688 -146.2299,669.6364 -156.1527,671.0203 L -170.885,667.7115 z" id="path1422" sodipodi:nodetypes="ccccccc" style="font-size:12px;fill:url(#radialGradient2474);fill-rule:evenodd" transform="matrix(0.662139,-0.749381,0.749381,0.662139,0,0)"/>
  </g>
  <g id="g1384" transform="translate(-263.25385,-351.26242)">
    <rect height="54.333496" id="rect1364" ry="15.059814" style="font-size:12px;fill:url(#linearGradient2476);fill-rule:evenodd" transform="translate(141.7395,17.71741)" width="57.876976" x="244.50076" y="507.84601"/>
    <path d="M -170.885,667.7115 C -172.0806,670.0532 -174.5612,676.6759 -170.0278,683.0278 L -152.2984,703.8386 C -145.8646,704.7495 -145.6228,700.4987 -145.206,695.2896 L -146.0759,683.8555 C -144.5526,677.6688 -146.2299,669.6364 -156.1527,671.0203 L -170.885,667.7115 z" id="path1378" sodipodi:nodetypes="ccccccc" style="font-size:12px;fill:url(#radialGradient2478);fill-rule:evenodd" transform="matrix(0.662139,-0.749381,0.749381,0.662139,0,0)"/>
  </g>
  <g id="g1423" transform="translate(-213.14132,-307.83152)">
    <rect height="54.333496" id="rect1424" ry="15.059814" style="font-size:12px;fill:url(#linearGradient2480);fill-rule:evenodd" transform="translate(141.7395,17.71741)" width="57.876976" x="244.50076" y="507.84601"/>
    <path d="M -170.885,667.7115 C -172.0806,670.0532 -174.5612,676.6759 -170.0278,683.0278 L -152.2984,703.8386 C -145.8646,704.7495 -145.6228,700.4987 -145.206,695.2896 L -146.0759,683.8555 C -144.5526,677.6688 -146.2299,669.6364 -156.1527,671.0203 L -170.885,667.7115 z" id="path1425" sodipodi:nodetypes="ccccccc" style="font-size:12px;fill:url(#radialGradient2482);fill-rule:evenodd" transform="matrix(0.662139,-0.749381,0.749381,0.662139,0,0)"/>
  </g>
  <g id="g1396" transform="translate(-307.51991,-306.16112)">
    <rect height="54.333496" id="rect1397" ry="15.059814" style="font-size:12px;fill:url(#linearGradient2484);fill-rule:evenodd" transform="translate(141.7395,17.71741)" width="57.876976" x="244.50076" y="507.84601"/>
    <path d="M -170.885,667.7115 C -172.0806,670.0532 -174.5612,676.6759 -170.0278,683.0278 L -152.2984,703.8386 C -145.8646,704.7495 -145.6228,700.4987 -145.206,695.2896 L -146.0759,683.8555 C -144.5526,677.6688 -146.2299,669.6364 -156.1527,671.0203 L -170.885,667.7115 z" id="path1398" sodipodi:nodetypes="ccccccc" style="font-size:12px;fill:url(#radialGradient2486);fill-rule:evenodd" transform="matrix(0.662139,-0.749381,0.749381,0.662139,0,0)"/>
  </g>
  <g id="g1417" transform="translate(-262.41863,-264.40072)">
    <rect height="54.333496" id="rect1418" ry="15.059814" style="font-size:12px;fill:url(#linearGradient2488);fill-rule:evenodd" transform="translate(141.7395,17.71741)" width="57.876976" x="244.50076" y="507.84601"/>
    <path d="M -170.885,667.7115 C -172.0806,670.0532 -174.5612,676.6759 -170.0278,683.0278 L -152.2984,703.8386 C -145.8646,704.7495 -145.6228,700.4987 -145.206,695.2896 L -146.0759,683.8555 C -144.5526,677.6688 -146.2299,669.6364 -156.1527,671.0203 L -170.885,667.7115 z" id="path1419" sodipodi:nodetypes="ccccccc" style="font-size:12px;fill:url(#radialGradient2490);fill-rule:evenodd" transform="matrix(0.662139,-0.749381,0.749381,0.662139,0,0)"/>
  </g>
  <g id="g1393" transform="translate(-357.6324,-352.93282)">
    <rect height="54.333496" id="rect1394" ry="15.059814" style="font-size:12px;fill:url(#linearGradient2492);fill-rule:evenodd" transform="translate(141.7395,17.71741)" width="57.876976" x="244.50076" y="507.84601"/>
    <path d="M -170.885,667.7115 C -172.0806,670.0532 -174.5612,676.6759 -170.0278,683.0278 L -152.2984,703.8386 C -145.8646,704.7495 -145.6228,700.4987 -145.206,695.2896 L -146.0759,683.8555 C -144.5526,677.6688 -146.2299,669.6364 -156.1527,671.0203 L -170.885,667.7115 z" id="path1395" sodipodi:nodetypes="ccccccc" style="font-size:12px;fill:url(#radialGradient2494);fill-rule:evenodd" transform="matrix(0.662139,-0.749381,0.749381,0.662139,0,0)"/>
  </g>
  <g id="g1390" transform="translate(-312.53116,-394.69326)">
    <rect height="54.333496" id="rect1391" ry="15.059814" style="font-size:12px;fill:url(#linearGradient2496);fill-rule:evenodd" transform="translate(141.7395,17.71741)" width="57.876976" x="244.50076" y="507.84601"/>
    <path d="M -170.885,667.7115 C -172.0806,670.0532 -174.5612,676.6759 -170.0278,683.0278 L -152.2984,703.8386 C -145.8646,704.7495 -145.6228,700.4987 -145.206,695.2896 L -146.0759,683.8555 C -144.5526,677.6688 -146.2299,669.6364 -156.1527,671.0203 L -170.885,667.7115 z" id="path1392" sodipodi:nodetypes="ccccccc" style="font-size:12px;fill:url(#radialGradient2498);fill-rule:evenodd" transform="matrix(0.662139,-0.749381,0.749381,0.662139,0,0)"/>
  </g>
  <g id="g1387" transform="translate(-265.75946,-434.78329)">
    <rect height="54.333496" id="rect1388" ry="15.059814" style="font-size:12px;fill:url(#linearGradient1356);fill-rule:evenodd" transform="translate(141.7395,17.71741)" width="57.876976" x="244.50076" y="507.84601"/>
    <path d="M -170.885,667.7115 C -172.0806,670.0532 -174.5612,676.6759 -170.0278,683.0278 L -152.2984,703.8386 C -145.8646,704.7495 -145.6228,700.4987 -145.206,695.2896 L -146.0759,683.8555 C -144.5526,677.6688 -146.2299,669.6364 -156.1527,671.0203 L -170.885,667.7115 z" id="path1389" sodipodi:nodetypes="ccccccc" style="font-size:12px;fill:url(#radialGradient1377);fill-rule:evenodd" transform="matrix(0.662139,-0.749381,0.749381,0.662139,0,0)"/>
  </g>
  <path d="M 215.4078,24.752476 C 209.9232,29.830676 210.4664,38.392276 216.6255,43.948676 L 229.687,55.732376 C 235.8461,61.288776 245.22,61.674076 250.7047,56.595876 L 262.3356,45.827076 C 267.8203,40.748976 267.2774,32.187676 261.1181,26.630976 L 245.6945,17.209776 C 239.5351,11.653276 230.1612,11.267876 224.6764,16.346076 L 215.4078,24.752476 z M 263.3528,68.006776 C 257.8682,73.084876 258.4112,81.646276 264.5703,87.202976 L 279.9943,98.986476 C 286.1534,104.54298 293.1647,104.92828 298.6498,99.850076 L 310.2808,89.081376 C 315.7653,84.003376 315.2221,75.441776 309.0631,69.885176 L 293.6394,59.282776 C 287.4802,53.726176 280.4685,52.159776 274.9839,57.237876 L 263.3528,68.006776 z M 311.2979,111.26088 C 305.8128,116.33898 308.7184,124.90048 314.8778,130.45698 L 325.5768,142.24058 C 331.7358,147.79718 341.1099,148.18238 346.5944,143.10428 L 355.8629,131.15438 C 361.3481,126.07638 360.8049,118.69578 354.6455,113.13928 L 343.9465,101.35588 C 337.7874,95.799376 328.4135,95.414076 322.9288,100.49198 L 311.2979,111.26088 z M 269.5958,153.06318 C 264.1113,158.14118 261.1106,165.52158 267.2699,171.07828 L 280.3312,182.86178 C 286.4905,188.41848 292.3208,185.26008 297.8056,180.18198 L 312.98,172.95638 C 318.4647,167.87848 317.9218,159.31728 311.7626,153.76058 L 295.1575,144.33918 C 288.9984,138.78238 283.1679,136.03508 277.6835,141.11328 L 269.5958,153.06318 z M 221.1645,110.43598 C 215.68,115.51398 216.2229,122.89438 222.3821,128.45098 L 233.0813,137.87208 C 239.2405,143.42888 248.6144,146.17628 254.0991,141.09818 L 265.7299,130.32938 C 271.2148,125.25138 268.3095,116.68988 262.1503,111.13328 L 251.4511,99.349776 C 245.292,93.793176 235.9181,93.407776 230.4335,98.485876 L 221.1645,110.43598 z M 170.2386,68.935776 C 164.7543,74.013776 165.2971,80.213076 171.4562,85.769676 L 185.6989,96.372076 C 191.858,101.92868 200.0508,103.49498 205.5354,98.416876 L 217.1665,87.648076 C 222.6511,82.570076 222.1081,74.008576 215.9488,68.451876 L 202.8874,56.668276 C 196.7282,51.111876 187.3543,50.726476 181.8697,55.804576 L 170.2386,68.935776 z M 126.7367,107.76748 C 121.2521,112.84538 119.4328,121.40708 125.5919,126.96368 L 138.6534,138.74728 C 144.8126,144.30378 154.1866,144.68908 159.6714,139.61108 L 171.3023,128.84198 C 176.7869,123.76398 176.2438,117.56508 170.0849,112.00818 L 157.0233,97.862476 C 150.8641,92.305876 141.4901,91.920476 136.0054,96.998676 L 126.7367,107.76748 z M 172.9381,150.44878 C 167.4535,155.52688 167.9965,164.08828 174.1558,169.64498 L 186.036,182.60968 C 192.1951,188.16618 198.0256,186.18918 203.5102,181.11098 L 216.3225,169.16128 C 221.8073,164.08298 224.8075,157.88388 218.6482,152.32728 L 205.5868,140.54368 C 199.4281,134.98708 190.0537,134.60188 184.5691,139.67988 L 172.9381,150.44878 z M 223.8641,193.13018 C 218.3795,198.20808 218.9225,206.76968 225.0815,212.32618 L 235.7807,224.10988 C 241.9401,229.66638 250.1328,227.68948 255.6176,222.61118 L 268.4296,214.20478 C 273.9142,209.12668 273.3713,200.56508 267.2121,195.00848 L 252.9695,185.58718 C 246.8102,180.03078 238.6175,177.28328 233.1327,182.36138 L 223.8641,193.13018 z M 178.076,236.70498 C 172.5914,241.78328 170.7722,249.16358 176.9313,254.72008 L 189.9929,266.50358 C 196.1519,272.06018 203.1637,270.08328 208.6483,265.00498 L 222.6415,256.59848 C 228.1265,251.52038 224.0396,244.14008 217.8805,238.58358 L 208.3626,225.61878 C 202.2035,220.06228 195.1918,222.03928 189.707,227.11738 L 178.076,236.70498 z M 127.7688,192.26968 C 122.2841,197.34778 122.8274,205.90948 128.9864,211.46598 L 144.4101,223.24948 C 150.5695,228.80588 157.581,229.19128 163.0657,224.11318 L 174.6968,213.34428 C 180.1813,208.26628 176.0948,200.88588 169.9357,195.32938 L 160.4176,182.36478 C 154.2586,176.80808 146.0658,178.78518 140.5811,183.86338 L 127.7688,192.26968 z M 79.824,149.01548 C 74.3392,154.09358 74.8823,162.65528 81.0415,168.21188 L 95.2843,177.63298 C 101.4434,183.18928 109.6361,185.93728 115.1207,180.85888 L 126.7516,170.09008 C 132.2365,165.01218 131.6934,156.45048 125.5341,150.89388 L 111.2914,141.47268 C 105.1323,135.91618 98.1207,135.53108 92.6362,140.60908 L 79.824,149.01548 z M 39.3796,188.47428 C 33.8945,193.55228 32.0755,204.47618 38.2347,210.03258 L 48.9337,221.81628 C 55.0928,227.37288 64.4668,227.75798 69.9516,222.67998 L 79.2201,211.91108 C 84.7049,206.83318 84.162,198.27148 78.0027,192.71498 L 67.3035,180.93148 C 61.1444,175.37478 51.7703,174.98958 46.2857,180.06778 L 39.3796,188.47428 z M 83.2184,233.51778 C 77.7338,238.59588 80.6391,247.15748 86.7982,252.71408 L 98.6786,262.13518 C 104.8378,267.69188 113.0306,270.43938 118.5151,265.36138 L 130.1464,254.59248 C 135.6308,249.51448 135.0877,240.95278 128.9287,235.39628 L 114.6859,225.97508 C 108.5268,220.41838 100.334,217.67088 94.8494,222.74898 L 83.2184,233.51778 z M 130.4682,276.14528 C 124.9838,281.22318 125.5267,289.78468 131.6857,295.34118 L 147.1098,305.94368 C 153.2688,311.50028 160.2805,313.06658 165.765,307.98868 L 177.3961,297.21968 C 182.8807,292.14148 179.9754,283.58008 173.8163,278.02338 L 163.1171,266.23968 C 156.9579,260.68328 151.1278,261.47938 145.6428,266.55738 L 130.4682,276.14528 z M 11.6618,188.18258 C 4.8142,194.52268 5.4923,205.21188 13.1821,212.14918 C 53.7833,253.27168 97.9281,294.39418 142.0728,328.42978 C 149.7626,335.36738 161.466,335.84838 168.3136,329.50808 C 241.4798,263.95298 306.3779,203.12238 380.7252,132.84258 C 387.5728,126.50238 386.8947,115.81338 379.205,108.87588 L 258.5824,4.4068761 C 250.8924,-2.5305239 221.4717,-0.64912386 214.6241,5.6908761 L 11.6618,188.18258 z" id="path1347" sodipodi:nodetypes="cccccccccccccccccccccccccccccccccccccccccccccccccccccccccccccccccccccccccccccccccccccccccccccccccccccccccccccccccccccccccccccccccccccccccccccccc" style="font-size:12px;fill:url(#linearGradient1353);fill-rule:evenodd"/>
  <path d="M 381.0437,132.35798 C 369.6588,149.03158 388.3737,124.08988 382.3443,112.32188 C 380.1005,108.09808 390.9212,129.92698 393.0768,134.48398 C 391.6867,143.09178 392.2633,157.29488 386.8782,162.43068 C 376.9797,174.23308 233.206,308.66138 174.8078,357.80368 C 165.6214,365.11628 151.8997,366.25428 142.1638,358.71998 C 100.2219,327.17628 12.6443,243.27248 7.9238,236.82468 C 3.4053,229.03938 0.938,214.78748 0,209.25588 C 2.9393,207.26798 3.9143,194.80708 8.7082,192.01138 C 3.4433,204.34268 12.8496,209.11768 16.2638,212.35648 C 39.0047,236.16898 112.5977,306.57668 142.0057,327.95778 C 154.7973,337.77168 164.2007,332.15058 171.3691,325.95248 C 211.958,291.87868 383.1976,128.83828 381.0437,132.35798 z" id="path1349" sodipodi:nodetypes="cscssssccssss" style="font-size:12px;fill:url(#linearGradient1354);fill-rule:evenodd;stroke-width:1"/>
  <path d="M 394.5413,135.79918 C 347.7016,171.42708 294.5954,246.27018 181.1114,340.83338 C 177.8374,343.48458 152.8233,352.93618 148.6077,350.76918 C 112.1647,331.58198 2.1484,211.49998 2.1484,210.03568 C 12.7536,245.68968 116.1756,325.36728 148.6077,345.92148 C 158.9468,353.35768 175.186,338.18208 180.2276,333.76318 C 305.2006,239.19998 394.5413,132.87068 394.5413,135.79918 z" id="path1431" sodipodi:nodetypes="ccscscc" style="font-size:12px;fill:url(#linearGradient1366);fill-rule:evenodd;stroke-width:1"/>
  <path d="M 10.7781,188.96938 C 3.9305,195.30948 5.4924,206.88248 13.1822,213.81978 C 31.2501,228.40938 31.8693,238.32698 27.394,247.23738 C 26.4453,249.59118 38.9732,239.46598 44.2421,244.55088 C 49.5111,249.63588 60.1368,259.41778 61.3478,271.52048 C 66.6929,276.53618 70.8914,269.69878 76.2987,274.61768 C 81.7061,279.53648 91.3171,275.21268 96.7729,280.00698 C 102.2287,284.80118 104.1199,301.07588 102.5233,308.67088 C 110.3747,299.14468 120.0144,312.55658 125.5256,317.01868 C 131.0367,321.48068 144.2324,316.98718 149.7504,321.24168 C 161.5743,341.17208 162.0159,330.38718 168.9043,324.09168 C 173.4363,319.94968 175.7568,329.68448 180.2694,325.62068 C 184.782,321.55698 190.9371,310.82648 195.398,306.78928 C 199.8591,302.75208 203.1152,309.35688 207.5333,305.33928 C 211.9513,301.32168 211.0348,280.77588 215.4185,276.77098 C 219.8022,272.76598 228.1618,271.33058 235.0254,270.67238 C 239.3835,266.67318 242.5647,287.01698 248.6624,279.34528 C 248.2788,272.98258 256.7476,250.67198 261.0803,246.66358 C 265.413,242.65518 275.0589,245.13738 279.3918,241.11408 C 277.0431,234.58508 279.7919,223.60878 282.9527,219.56348 C 287.2946,215.51818 295.7772,214.41308 300.1367,210.33898 C 304.4961,206.26488 314.4892,221.17818 315.0241,215.19158 C 315.2757,205.76638 322.0391,189.82528 326.4597,185.67268 C 330.8803,181.52018 331.1865,196.83378 335.6507,192.63158 C 340.1148,188.42948 340.1157,158.88658 346.1664,157.49998 C 351.8639,156.78488 365.8579,164.30768 370.4351,159.98558 C 367.9253,152.71048 376.0518,138.87688 380.7253,134.51318 C 387.5461,128.14428 383.9419,120.43678 376.2522,113.49938 C 366.4464,104.54758 360.1757,95.595776 350.3698,86.643876 C 340.564,77.692076 327.2232,68.740176 317.4173,59.788476 C 307.6115,50.836576 300.8635,40.312076 293.3025,29.397876 C 285.2642,16.911076 263.9695,18.564376 258.5825,6.0774761 C 250.8925,-0.85992386 208.0896,5.1370761 201.2421,11.477076 C 185.3701,26.268076 210.1514,19.848676 153.6261,55.850176 C 153.6619,65.338576 120.1145,94.269776 103.3588,113.47968 C 92.7894,127.38698 73.3823,134.22408 58.3941,144.59628 C 38.987,154.08478 27.5339,179.48098 10.7781,188.96938 z M 132.9739,285.47848 C 132.7921,294.09138 133.2865,294.99038 131.6858,297.01178 L 147.1099,307.61428 C 153.2689,313.17088 160.2806,314.73718 165.7651,309.65928 L 177.3962,298.89028 C 182.8808,293.81208 177.4699,284.41548 171.3108,286.37568 C 170.8406,277.46448 174.5464,266.88288 164.8889,259.64218 C 158.7297,254.08578 145.8127,252.51948 140.3277,257.59758 L 132.9739,285.47848 z M 68.475,231.05008 C 61.2229,235.24438 79.458,250.00928 85.6171,255.56588 L 100.8557,263.99108 C 104.3636,272.19898 109.4956,276.52878 115.8639,275.86968 L 127.1978,274.25258 C 132.6822,269.17478 135.0878,242.62338 128.9288,237.06688 L 127.0588,217.04038 C 120.8997,208.83238 105.6367,206.96878 100.1521,212.04678 L 68.475,231.05008 z M 33.4739,182.46728 C 27.9888,187.54528 28.92,204.96568 35.0792,210.52208 L 44.7997,231.16448 C 50.9588,236.72108 62.6952,235.33438 68.18,230.25638 L 85.126,214.76278 C 90.6108,209.68498 88.2962,196.39858 82.1369,190.84208 C 76.3573,186.68358 74.9479,181.44698 68.3331,183.97018 C 67.7591,179.52148 72.1608,206.18808 61.8802,195.71598 C 57.7316,191.48268 65.5223,174.75098 47.7559,167.56868 L 33.4739,182.46728 z M 78.6429,148.32378 C 73.1581,153.40188 73.1107,167.27868 79.2699,172.83538 L 94.6938,180.34138 C 103.3585,182.55688 108.801,182.59658 114.2856,179.18868 L 129.7046,177.07588 C 135.1895,171.99808 134.0558,156.93988 127.8965,151.38328 L 114.2444,136.64688 C 108.0853,131.09038 98.7114,136.40838 93.2269,141.48638 L 78.6429,148.32378 z M 127.7689,193.94028 C 122.2842,199.01838 121.0558,210.53298 127.2148,216.08948 L 142.6385,232.00708 C 148.7979,237.56348 164.6681,230.86188 170.1528,225.78378 L 182.9651,212.06198 C 188.4495,206.98398 178.4572,196.65068 172.2981,191.09418 L 164.8365,177.84908 C 158.6775,172.29228 147.8377,169.82538 142.353,174.90358 L 127.7689,193.94028 z M 178.0761,238.37558 C 172.5915,243.45388 170.7723,250.83418 176.9314,256.39068 L 181.7249,276.44228 C 187.8839,281.99898 204.345,277.06908 209.8296,271.99078 L 222.6416,258.26908 C 228.1266,253.19098 235.2607,246.40128 229.1016,240.84478 L 214.8591,222.56468 C 208.7,217.00828 195.1919,223.70988 189.7071,228.78798 L 178.0761,238.37558 z M 200.8652,191.25308 C 195.3806,196.33088 218.9226,208.44028 225.0816,213.99678 L 235.7808,225.78048 C 241.9402,231.33698 250.1329,229.36008 255.6177,224.28178 L 268.4297,215.87538 C 273.9143,210.79728 273.3714,202.23568 267.2122,196.67908 L 252.9696,187.25778 C 246.8103,181.70138 241.8637,177.16518 234.6114,175.17318 C 223.3627,176.99808 212.1139,179.70668 200.8652,191.25308 z M 169.3947,146.21348 C 163.9101,151.29158 167.9966,165.75888 174.1559,171.31558 L 181.3114,189.59558 C 187.4706,195.15208 195.6634,196.71848 201.148,191.64028 L 216.3226,170.83188 C 221.8074,165.75358 224.8076,159.55448 218.6483,153.99788 L 214.4456,139.85188 C 208.2869,134.29528 193.5973,126.23258 188.1127,131.31058 L 169.3947,146.21348 z M 122.0121,105.89458 C 116.501,111.04978 115.2988,123.66828 121.4579,129.22488 L 133.9288,147.50498 C 140.088,153.06148 154.1867,151.67488 159.6715,146.59698 L 171.3024,130.51258 C 173.2519,128.08588 175.2146,122.67368 169.2498,123.70128 C 169.1395,112.59678 164.8532,103.16268 159.7317,97.069376 C 153.5725,91.512876 144.831,101.94318 139.3464,107.02138 C 135.2387,100.79928 126.2051,102.60768 122.0121,105.89458 z M 165.8199,67.954976 C 160.3356,73.033076 165.2972,81.883676 171.4563,87.440276 L 178.6289,112.18288 C 180.3691,122.15838 203.586,110.46818 209.0706,105.39008 L 217.1666,94.621276 C 222.6512,89.543276 229.1784,73.027876 223.0191,67.471176 L 209.9576,48.617376 C 207.3335,40.409676 190.0057,34.721676 184.5211,39.799776 L 165.8199,67.954976 z M 222.835,117.11788 C 217.3505,112.17338 212.8822,124.56498 219.0414,130.12158 L 236.9558,152.83888 C 243.3577,159.03648 256.8209,152.85818 259.9456,144.43918 L 265.73,131.99998 C 271.2149,126.92198 268.3096,118.36048 262.1504,112.80388 C 252.8728,100.05158 246.4393,126.46598 244.8446,118.17678 C 245.5018,86.677476 228.9405,95.255076 226.1982,97.794176 C 227.7284,105.11918 229.2587,118.63058 222.835,117.11788 z M 272.9368,158.90988 C 269.1227,153.13008 260.2755,164.68658 266.4348,170.24328 L 280.3313,184.53238 C 286.4906,190.08908 291.4857,186.09548 296.9705,181.01738 L 312.9801,174.62698 C 318.4648,169.54908 317.9219,160.98788 311.7627,155.43118 L 295.1576,146.00978 C 288.9985,140.45298 283.168,137.70568 277.6836,142.78388 L 272.9368,158.90988 z M 301.8487,111.99488 C 296.3636,117.07308 299.8178,134.88118 305.9772,140.43778 L 325.5769,148.04528 C 331.7359,153.60178 343.4723,150.44358 348.9568,145.36548 L 354.9859,131.25578 C 357.1302,124.50738 372.7599,121.24348 359.9188,115.68708 L 343.9466,99.482976 C 337.7875,93.926476 325.5135,87.306176 323.3696,106.58268 C 322.1411,101.29508 324.3847,118.11628 315.5009,119.24578 C 311.0731,119.87088 305.1652,109.34798 301.8487,111.99488 z M 250.9801,59.072176 C 245.4956,64.150276 253.9924,83.316876 260.1515,88.873576 L 277.3431,98.005776 C 283.5021,103.56228 294.9323,104.83138 298.6499,101.52068 L 312.9322,91.635776 C 318.4167,86.557776 323.1761,65.623376 317.0171,60.066776 L 298.9421,47.696776 C 291.0153,43.907776 282.2361,43.225176 274.984,47.419576 L 250.9801,59.072176 z M 215.4079,26.423076 C 212.5746,30.617576 211.3503,36.527776 214.858,42.967976 L 223.5007,67.124476 C 227.0085,74.448376 245.2201,63.344676 250.7048,58.266476 L 262.3357,47.497676 C 267.8204,42.419576 267.2775,33.858276 261.1182,28.301576 L 245.6946,18.880376 C 239.5352,13.323876 230.1613,12.938476 224.6765,18.016676 L 215.4079,26.423076 z" id="path1429" sodipodi:nodetypes="ccsscsscscsssssccscsssssscscssscccccccccccccccccccccccccccccccscccccccccccccccccccccccccccccccccccccccccccccccccccccccscccccccccccccccscccccccccccccccccccsccccccccccccccccccc" style="font-size:12px;fill:#6c4616;fill-opacity:1;fill-rule:evenodd"/>
  <path d="M 203.64805,200.3141 C 206.74136,203.09116 216.23311,206.69578 226.07426,218.73381 C 241.01249,236.80942 251.03156,232.81573 271.72648,215.6407 C 277.39893,210.72316 287.54215,228.19964 253.28676,246.58363 C 248.78824,248.93722 251.55817,271.33081 225.25417,263.75983 C 217.13788,261.69655 209.69737,280.67809 205.65725,294.77491 C 203.09927,303.14064 189.06596,308.59182 179.52701,310.27717 C 169.13651,312.30054 183.08758,291.63062 180.50215,277.37982 C 191.78512,289.34397 242.18943,256.86922 226.18139,233.05472 C 214.88798,215.63029 203.38375,218.23559 197.45042,221.01771 C 193.59251,223.14315 164.27714,239.70923 173.37443,259.40412 C 150.65617,247.28354 138.29666,260.60961 135.71752,258.86628 C 130.30608,251.50016 139.13692,241.76701 130.57339,226.77944 C 123.0485,212.95993 146.34358,240.30127 151.89346,238.56807 C 163.77127,234.58277 212.47817,214.45443 173.15818,187.05771 C 163.88612,180.87135 163.80717,170.54991 157.30461,167.86668 C 150.80205,165.1833 136.99214,177.20832 131.19054,182.13179 C 125.65811,186.20615 121.96911,209.43279 116.00732,205.93024 C 109.72187,203.12137 103.78211,203.2168 82.571737,217.98952 C 105.54973,195.64407 90.278982,200.15839 85.075504,192.93048 C 81.528095,186.9954 75.897836,181.75733 80.815695,176.95935 C 85.733412,172.16152 102.19483,186.83781 108.69725,184.15458 C 115.19995,181.47135 135.60553,179.9874 137.80737,171.14976 C 137.35799,159.6607 142.73954,154.07449 158.96354,153.22263 C 165.98713,152.8327 166.01945,173.04518 170.93731,177.84316 C 175.85517,182.64113 179.83494,188.35415 182.58528,194.6981 C 185.33562,201.04205 195.69424,192.10899 203.64805,200.3141 z" id="path1433" sodipodi:nodetypes="csssssscsscssscssscssscsssc" style="font-size:12px;fill:url(#linearGradient2500);fill-rule:evenodd;stroke-width:1"/>
  <path d="M 297.271,107.39718 C 300.3643,110.17428 291.8269,121.94228 299.3706,135.53848 C 309.0062,154.49788 331.398,169.94698 362.6981,129.79398 C 367.3773,123.92338 376.7462,138.81788 342.4909,157.20188 C 337.9924,159.55548 342.5298,185.48418 316.2258,177.91318 C 308.1095,175.84988 300.669,194.83138 296.6289,208.92828 C 294.0709,217.29398 280.0376,222.74518 270.4987,224.43048 C 260.1082,226.45388 274.0592,205.78398 271.4738,191.53318 C 282.7568,203.49728 336.6961,173.67398 317.153,147.20808 C 305.1882,130.23758 294.3554,132.38888 288.4221,135.17108 C 284.5642,137.29648 255.2488,153.86258 264.3461,173.55748 C 241.6278,161.43688 229.2683,174.76298 226.6892,173.01958 C 221.2777,165.65348 230.1086,155.92038 221.5451,140.93278 C 214.0202,127.11328 239.0827,159.75718 244.6326,158.02398 C 256.5104,154.03868 303.4498,128.60778 264.1298,101.21108 C 254.8578,95.024676 254.7788,84.703276 248.2763,82.019976 C 241.7737,79.336676 227.9638,91.361676 222.1622,96.285076 C 216.6298,100.35948 212.9408,123.58608 206.979,120.08358 C 200.6935,117.27468 194.7538,117.37008 173.5434,132.14288 C 177.9623,121.28638 174.1805,116.96298 169.8608,107.96748 C 167.3937,101.50828 170.397,84.384176 171.7874,91.112676 C 172.2863,98.687576 176.3749,126.62048 200.5526,111.56438 C 206.5827,107.94178 226.5772,94.140676 228.779,85.303076 C 228.3297,73.813976 229.2891,62.620376 243.7488,70.027276 C 249.8887,74.056076 256.9911,87.198476 261.909,91.996476 C 266.8268,96.794476 270.8066,102.50748 273.5569,108.85138 C 276.3073,115.19538 289.3172,99.192076 297.271,107.39718 z" id="path1438" sodipodi:nodetypes="csssssscsscssscssscssscsssc" style="font-size:12px;fill:url(#linearGradient1434);fill-rule:evenodd;stroke-width:1"/>
  <metadata>
    <rdf:RDF>
      <cc:Work>
        <dc:format>image/svg+xml</dc:format>
        <dc:type rdf:resource="http://purl.org/dc/dcmitype/StillImage"/>
        <cc:license rdf:resource="http://creativecommons.org/licenses/publicdomain/"/>
        <dc:publisher>
          <cc:Agent rdf:about="http://openclipart.org/">
            <dc:title>Open Clip Art Library</dc:title>
          </cc:Agent>
        </dc:publisher>
        <dc:title>Chocolate waffle</dc:title>
        <dc:date>2009-04-03T08:47:45</dc:date>
        <dc:description>Chocolate waffle ("Gaufre au chocolat") by Franck Doucet. From old OCAL website.</dc:description>
        <dc:source>http://openclipart.org/detail/23867/chocolate-waffle-by-anonymous-23867</dc:source>
        <dc:creator>
          <cc:Agent>
            <dc:title>Anonymous</dc:title>
          </cc:Agent>
        </dc:creator>
        <dc:subject>
          <rdf:Bag>
            <rdf:li>chocolate</rdf:li>
            <rdf:li>chocolate</rdf:li>
            <rdf:li>clip art</rdf:li>
            <rdf:li>clipart</rdf:li>
            <rdf:li>dessert</rdf:li>
            <rdf:li>dessert</rdf:li>
            <rdf:li>food</rdf:li>
            <rdf:li>food</rdf:li>
            <rdf:li>gaufre</rdf:li>
            <rdf:li>gaufre</rdf:li>
            <rdf:li>image</rdf:li>
            <rdf:li>media</rdf:li>
            <rdf:li>png</rdf:li>
            <rdf:li>public domain</rdf:li>
            <rdf:li>svg</rdf:li>
            <rdf:li>sweets</rdf:li>
            <rdf:li>sweets</rdf:li>
            <rdf:li>waffle</rdf:li>
            <rdf:li>waffle</rdf:li>
          </rdf:Bag>
        </dc:subject>
      </cc:Work>
      <cc:License rdf:about="http://creativecommons.org/licenses/publicdomain/">
        <cc:permits rdf:resource="http://creativecommons.org/ns#Reproduction"/>
        <cc:permits rdf:resource="http://creativecommons.org/ns#Distribution"/>
        <cc:permits rdf:resource="http://creativecommons.org/ns#DerivativeWorks"/>
      </cc:License>
    </rdf:RDF>
  </metadata>
</svg>
