<?xml version="1.0" encoding="UTF-8" standalone="no"?>
<!-- Created with Inkscape (http://www.inkscape.org/) -->
<svg xmlns:dc="http://purl.org/dc/elements/1.1/" xmlns:cc="http://creativecommons.org/ns#" xmlns:rdf="http://www.w3.org/1999/02/22-rdf-syntax-ns#" xmlns:svg="http://www.w3.org/2000/svg" xmlns="http://www.w3.org/2000/svg" xmlns:sodipodi="http://sodipodi.sourceforge.net/DTD/sodipodi-0.dtd" xmlns:inkscape="http://www.inkscape.org/namespaces/inkscape" width="297mm" height="210mm" id="svg3919" version="1.1" inkscape:version="0.48.4 r9939" sodipodi:docname="New document 8">
  <defs id="defs3921"/>
  <sodipodi:namedview inkscape:document-units="mm" pagecolor="#ffffff" bordercolor="#666666" borderopacity="1.0" inkscape:pageopacity="0.0" inkscape:pageshadow="2" inkscape:zoom="0.43415836" inkscape:cx="655.45105" inkscape:cy="287.86772" inkscape:current-layer="layer1" id="namedview3923" showgrid="false" inkscape:window-width="1440" inkscape:window-height="838" inkscape:window-x="-8" inkscape:window-y="-8" inkscape:window-maximized="1"/>
  <g inkscape:label="Layer 1" inkscape:groupmode="layer" id="layer1">
    <path style="fill:#ffaaaa;stroke:#000000;stroke-width:7.08661417;stroke-linecap:butt;stroke-linejoin:miter;stroke-opacity:1;stroke-miterlimit:4;stroke-dasharray:none" d="m 234.93732,345.62237 c -5.68706,-9.15329 -2.27777,-21.47018 -2.30331,-32.2463 -0.0137,-5.77103 -0.2571,-11.67833 1.15165,-17.2748 1.13228,-4.49817 3.65533,-8.53379 5.75827,-12.66819 4.5981,-9.0399 7.83713,-19.27948 14.9715,-26.48803 5.92859,-5.99023 13.91736,-9.91049 21.88141,-12.66819 5.1301,-1.77639 10.69629,-2.45394 16.12315,-2.30331 5.87004,0.16293 12.42297,0.14684 17.2748,3.45496 5.27883,3.59927 7.79278,10.27465 10.36489,16.12315 3.03629,6.90396 4.79055,14.40163 5.75826,21.88142 0.54181,4.18783 0.97018,8.55842 0,12.66819 -1.77496,7.51886 -6.58588,13.99159 -10.36488,20.72976 -5.31454,9.47612 -9.77474,19.779 -17.2748,27.63968 -8.38008,8.78302 -17.8121,20.27265 -29.94299,20.72977 -12.89531,0.48593 -26.58768,-8.61703 -33.39795,-19.57811 z" id="path3943" inkscape:connector-curvature="0" sodipodi:nodetypes="aaaaaaaaaaaaaaa"/>
    <path style="fill:#cccccc;stroke:#000000;stroke-width:7.08661417;stroke-linecap:butt;stroke-linejoin:miter;stroke-opacity:1;stroke-miterlimit:4;stroke-dasharray:none" d="m 108.25543,513.76378 c -0.16486,-17.03779 12.36141,-31.783 19.57811,-47.21779 8.07261,-17.26538 16.86228,-34.22267 26.48803,-50.67276 9.94836,-17.00142 18.81798,-35.10935 32.2463,-49.5211 12.14278,-13.03206 27.38512,-23.00243 42.61118,-32.2463 14.53129,-8.82207 30.14912,-15.91185 46.06614,-21.88141 23.89649,-8.9622 49.24487,-13.44791 73.70582,-20.72977 13.49848,-4.01841 27.20429,-7.5056 40.30788,-12.66819 18.21187,-7.17516 33.88664,-21.00637 52.97606,-25.33637 10.85686,-2.46263 22.35732,-1.4284 33.39795,0 29.91918,3.87084 59.51454,11.82964 87.52567,23.03307 19.9411,7.97571 38.32857,19.53778 56.43102,31.09464 18.05612,11.52729 36.41464,23.12368 51.82441,38.00457 18.28612,17.65852 35.06076,37.56083 47.21779,59.88598 7.37327,13.54025 11.10983,28.83665 14.9715,43.76283 2.73484,10.57075 1.10158,22.3703 5.75827,32.2463 4.29746,9.11416 15.8542,13.66992 19.5781,23.03307 2.69925,6.78683 3.92986,15.12653 1.15166,21.88142 -4.34146,10.55578 -16.0013,16.4658 -25.33638,23.03307 -11.3769,8.00371 -24.08473,14.05844 -36.85291,19.57811 -18.60892,8.04461 -37.61623,16.06408 -57.58268,19.57811 -54.83243,9.65033 -111.44668,-0.3779 -166.98976,3.45496 -19.66636,1.35712 -39.07236,5.49053 -58.73433,6.90992 -28.34407,2.04615 -60.21198,15.79603 -85.22236,2.30331 -8.3444,-4.50168 -8.15041,-17.59937 -14.97149,-24.18473 -6.67984,-6.449 -15.88161,-9.66435 -24.18472,-13.81984 -11.22411,-5.61738 -23.92545,-8.28847 -34.54961,-14.97149 -6.44992,-4.05726 -9.99436,-12.72253 -17.2748,-14.9715 -9.59964,-2.96539 -20.69007,-0.46041 -29.94299,3.45496 -5.02469,2.1262 -7.5557,8.45947 -12.66819,10.36488 -12.9547,4.82818 -27.72532,2.73498 -41.45953,1.15166 -7.49251,-0.86376 -14.97746,-2.72198 -21.88142,-5.75827 -5.8485,-2.57211 -11.97824,-5.50273 -16.12315,-10.36488 -4.34935,-5.10198 -7.9967,-11.72252 -8.06157,-18.42646 z" id="path3939" inkscape:connector-curvature="0" sodipodi:nodetypes="aaaaaaaaaaaaaaaaaaaaaaaaaaaaaaaaaa"/>
    <path style="fill:#ffaaaa;stroke:#000000;stroke-width:7.08661416999999980;stroke-linecap:butt;stroke-linejoin:miter;stroke-opacity:1;stroke-miterlimit:4;stroke-dasharray:none" d="m 268.33527,373.26205 c -1.90805,-11.46071 -3.83716,-22.95666 -4.60662,-34.5496 -0.63559,-9.57604 -2.01401,-19.40793 0,-28.79134 1.76682,-8.23177 5.69473,-16.02783 10.36489,-23.03307 4.67016,-7.00523 10.59179,-13.30581 17.2748,-18.42646 5.18022,-3.96919 10.94362,-7.63043 17.2748,-9.21323 7.07603,-1.76901 14.6818,-1.16834 21.88142,0 5.99137,0.97227 12.68939,1.78136 17.2748,5.75827 3.89085,3.37452 4.80005,9.12148 6.90992,13.81984 2.54062,5.65757 5.7371,11.18487 6.90992,17.27481 1.37931,7.1622 1.25395,14.6962 0,21.88141 -1.75359,10.0482 -5.77473,19.68245 -10.36488,28.79134 -3.73721,7.41627 -8.87474,14.05789 -13.81984,20.72976 -8.28295,11.17524 -15.32208,23.95083 -26.48803,32.2463 -4.00596,2.97613 -13.81984,5.75827 -13.81984,5.75827 0,0 -21.49902,-15.30174 -27.63969,-26.48803 -0.94194,-1.7159 -0.83019,-3.82741 -1.15165,-5.75827 z" id="path3941" inkscape:connector-curvature="0" sodipodi:nodetypes="aaaaaaaaaaaaaacaa"/>
    <path style="fill:#ffb380;stroke:#000000;stroke-width:7.08661417;stroke-linecap:butt;stroke-linejoin:miter;stroke-opacity:1;fill-opacity:1;stroke-miterlimit:4;stroke-dasharray:none" d="m 747.42313,508.00551 c 14.40807,-11.49301 36.85837,-1.74198 55.27937,-1.15165 18.0985,0.58 36.09189,2.99373 54.12771,4.60661 12.28913,1.09897 24.63693,1.72288 36.85292,3.45496 8.12524,1.15206 16.00121,3.99261 24.18472,4.60662 9.96038,0.74733 20.45675,1.97547 29.94299,-1.15166 9.70785,-3.20018 16.67821,-11.84161 25.33638,-17.2748 12.38188,-7.76991 26.19386,-13.26808 38.00458,-21.88142 4.6109,-3.36267 12.6682,-11.51653 12.6682,-11.51653 0,0 -24.33472,26.42442 -38.00459,38.00456 -10.07888,8.53809 -20.68138,16.65064 -32.2463,23.03307 -7.98898,4.40894 -16.3051,9.06164 -25.33638,10.36489 -18.71417,2.70054 -37.53974,-4.96298 -56.43102,-5.75827 -43.73083,-1.84099 -91.38243,-0.28778 -131.2885,2.30331 -9.47682,0.61533 -0.51422,-21.71761 6.90992,-27.63969 z" id="path3945" inkscape:connector-curvature="0" sodipodi:nodetypes="aaaaaaaacaaaasa"/>
    <path style="fill:#de8787;stroke:#000000;stroke-width:7.08661417;stroke-linecap:butt;stroke-linejoin:miter;stroke-opacity:1;stroke-miterlimit:4;stroke-dasharray:none" d="m 314.40141,556.37496 c -8.826,1.35179 -4.25853,18.98404 -11.51654,24.18472 -5.34137,3.82732 -13.0079,2.40772 -19.57811,2.30331 -7.7626,-0.12336 -15.27282,-3.68242 -23.03307,-3.45496 -7.45049,0.21838 -15.75405,0.36245 -21.88141,4.60661 -4.1146,2.85001 -8.06158,12.66819 -8.06158,12.66819 0,0 23.00877,2.13279 34.54961,2.30331 10.37085,0.15323 20.73375,-0.67202 31.09464,-1.15165 6.91318,-0.32003 14.9104,2.59392 20.72977,-1.15166 7.65248,-4.92544 13.87438,-15.16444 12.66818,-24.18472 -0.97207,-7.2694 -7.72193,-17.2335 -14.97149,-16.12315 z" id="path3947" inkscape:connector-curvature="0" sodipodi:nodetypes="aaaaacaaaaa"/>
    <path style="fill:#de8787;stroke:#000000;stroke-width:7.08661417;stroke-linecap:butt;stroke-linejoin:miter;stroke-opacity:1;stroke-miterlimit:4;stroke-dasharray:none" d="m 696.75038,541.40346 c -9.26209,7.01443 4.39318,27.20168 -4.60662,34.54961 -8.64397,7.05741 -23.01185,-6.38429 -33.39795,-2.30331 -7.83604,3.07899 -13.85602,10.73259 -17.2748,18.42646 -1.87708,4.22431 -4.40092,10.5319 -1.15166,13.81984 3.78733,3.83242 11.15826,0.94148 16.12315,-1.15165 4.25952,-1.79575 5.91769,-10.47448 10.36488,-9.21323 3.8558,1.09353 0.23947,9.12411 3.45496,11.51653 3.38787,2.52068 9.19742,2.40524 12.66819,0 2.69584,-1.86822 0.2927,-8.34266 3.45496,-9.21322 2.36989,-0.65243 3.75296,3.18506 5.75827,4.60661 2.9545,2.09443 5.59339,5.86989 9.21323,5.75827 3.30073,-0.10178 6.39043,-2.91003 8.06157,-5.75827 3.5183,-5.9965 -4.41712,-18.94867 2.30331,-20.72976 5.04715,-1.33762 4.02208,12.10704 9.21323,12.66819 4.59581,0.49679 10.2291,-4.59264 10.36488,-9.21323 0.12757,-4.34128 -7.01069,-5.46999 -9.21323,-9.21323 -5.66912,-9.63476 -0.78825,-24.8987 -9.21323,-32.2463 -4.09153,-3.56831 -11.79525,-5.58093 -16.12314,-2.30331 z" id="path3949" inkscape:connector-curvature="0" sodipodi:nodetypes="aaaaaaaaaaaaaaaaaaa"/>
    <path style="fill:#000000;stroke:#000000;stroke-width:7.08661416999999980;stroke-linecap:butt;stroke-linejoin:miter;stroke-opacity:1;stroke-miterlimit:4;stroke-dasharray:none;fill-opacity:1" d="m 207.29763,415.87323 c -3.8388,-0.0179 -6.91136,3.83777 -9.21323,6.90992 -1.96672,2.62485 -3.13792,5.94868 -3.45496,9.21323 -0.45142,4.64829 -0.82791,10.35489 2.30331,13.81984 2.93463,3.24741 8.29123,3.45496 12.66819,3.45496 4.37696,0 9.52372,-0.41029 12.66819,-3.45496 3.75113,-3.63208 6.19808,-9.99855 4.60661,-14.97149 -2.50406,-7.82457 -11.36271,-14.93311 -19.57811,-14.9715 z" id="path3951" inkscape:connector-curvature="0" sodipodi:nodetypes="aaaaaaaa"/>
    <path sodipodi:type="arc" style="color:#000000;fill:#1a1a1a;fill-opacity:1;fill-rule:nonzero;stroke:none;stroke-width:7.08661413;marker:none;visibility:visible;display:inline;overflow:visible;enable-background:accumulate" id="path4461" sodipodi:cx="121.49944" sodipodi:cy="518.94623" sodipodi:rx="14.395669" sodipodi:ry="15.547322" d="m 107.93901,513.72747 a 14.395669,15.547322 0 1 1 -0.1691,0.54405" sodipodi:start="3.4839082" sodipodi:end="9.7301793" sodipodi:open="true" transform="translate(-10.364881,-5.7582676)"/>
    <path style="fill:#808080;stroke:#000000;stroke-width:3.54330708999999990;stroke-linecap:butt;stroke-linejoin:miter;stroke-opacity:0.77248675;stroke-miterlimit:4;stroke-dasharray:none" d="M 114.0137,509.15717 C 274.09354,481.51748 274.09354,481.51748 274.09354,481.51748" id="path4463" inkscape:connector-curvature="0"/>
    <path style="fill:#808080;stroke:#000000;stroke-width:3.54330708999999990;stroke-linecap:butt;stroke-linejoin:miter;stroke-opacity:0.77248675;stroke-miterlimit:4;stroke-dasharray:none" d="m 116.18204,513.21323 111.98032,6.85936" id="path4465" inkscape:connector-curvature="0"/>
    <path style="fill:#808080;stroke:#000000;stroke-width:3.54330708999999990;stroke-linecap:butt;stroke-linejoin:miter;stroke-opacity:0.77248675;stroke-miterlimit:4;stroke-dasharray:none" d="M 112.86204,518.37039 213.0559,557.52661" id="path4467" inkscape:connector-curvature="0"/>
  </g>
  <metadata>
    <rdf:RDF>
      <cc:Work>
        <dc:format>image/svg+xml</dc:format>
        <dc:type rdf:resource="http://purl.org/dc/dcmitype/StillImage"/>
        <cc:license rdf:resource="http://creativecommons.org/licenses/publicdomain/"/>
        <dc:publisher>
          <cc:Agent rdf:about="http://openclipart.org/">
            <dc:title>Open Clip Art Library</dc:title>
          </cc:Agent>
        </dc:publisher>
        <dc:title>mouse</dc:title>
        <dc:date>2013-02-06T16:56:40</dc:date>
        <dc:description>mouse</dc:description>
        <dc:source>http://openclipart.org/detail/174870/mouse-by-artbejo-174870</dc:source>
        <dc:creator>
          <cc:Agent>
            <dc:title>artbejo</dc:title>
          </cc:Agent>
        </dc:creator>
        <dc:subject>
          <rdf:Bag>
            <rdf:li>clip art</rdf:li>
            <rdf:li>clipart</rdf:li>
            <rdf:li>mice</rdf:li>
            <rdf:li>mouse</rdf:li>
          </rdf:Bag>
        </dc:subject>
      </cc:Work>
      <cc:License rdf:about="http://creativecommons.org/licenses/publicdomain/">
        <cc:permits rdf:resource="http://creativecommons.org/ns#Reproduction"/>
        <cc:permits rdf:resource="http://creativecommons.org/ns#Distribution"/>
        <cc:permits rdf:resource="http://creativecommons.org/ns#DerivativeWorks"/>
      </cc:License>
    </rdf:RDF>
  </metadata>
</svg>
