<?xml version="1.0" encoding="UTF-8" standalone="no"?>
<!-- Created with Inkscape (http://www.inkscape.org/) -->

<svg
   xmlns:dc="http://purl.org/dc/elements/1.1/"
   xmlns:cc="http://creativecommons.org/ns#"
   xmlns:rdf="http://www.w3.org/1999/02/22-rdf-syntax-ns#"
   xmlns:svg="http://www.w3.org/2000/svg"
   xmlns="http://www.w3.org/2000/svg"
   xmlns:sodipodi="http://sodipodi.sourceforge.net/DTD/sodipodi-0.dtd"
   xmlns:inkscape="http://www.inkscape.org/namespaces/inkscape"
   width="116"
   height="135"
   id="svg3175"
   version="1.1"
   inkscape:version="0.48.2 r9819"
   sodipodi:docname="eagle.svg">
  <defs
     id="defs3177" />
  <sodipodi:namedview
     id="base"
     pagecolor="#ffffff"
     bordercolor="#666666"
     borderopacity="1.0"
     inkscape:pageopacity="0.0"
     inkscape:pageshadow="2"
     inkscape:zoom="1.4"
     inkscape:cx="84.92347"
     inkscape:cy="46.794453"
     inkscape:document-units="px"
     inkscape:current-layer="layer1"
     showgrid="false"
     fit-margin-top="0"
     fit-margin-left="0"
     fit-margin-right="0"
     fit-margin-bottom="0"
     inkscape:window-width="696"
     inkscape:window-height="726"
     inkscape:window-x="110"
     inkscape:window-y="61"
     inkscape:window-maximized="0"
     borderlayer="true" />
  <metadata
     id="metadata3180">
    <rdf:RDF>
      <cc:Work
         rdf:about="">
        <dc:format>image/svg+xml</dc:format>
        <dc:type
           rdf:resource="http://purl.org/dc/dcmitype/StillImage" />
        <dc:title></dc:title>
      </cc:Work>
    </rdf:RDF>
  </metadata>
  <g
     inkscape:label="Layer 1"
     inkscape:groupmode="layer"
     id="layer1"
     transform="translate(-371.10895,-247.60108)">
    <g
       id="g4079"
       transform="translate(-95,7.1428572)">
      <path
         style="fill:#f1f0f0"
         d="m 466.10895,307.95822 c 0,-67.5 0,-67.5 58,-67.5 58,0 58,0 58,67.5 0,67.5 0,67.5 -58,67.5 -58,0 -58,0 -58,-67.5 z"
         id="path4087"
         inkscape:connector-curvature="0" />
      <path
         style="fill:#e4c404"
         d="m 471.51272,370.79698 c -0.37777,-2.01368 -0.32956,-8.42618 0.10713,-14.25 0.873,-11.64274 0.89732,-13.63263 0.39823,-32.58876 -0.29298,-11.12774 -0.009,-14.25089 1.9704,-21.68551 2.31267,-8.6855 2.31267,-8.6855 -2.78343,-17.344 -6.80952,-11.56967 -6.90327,-11.39346 7.4039,-13.91609 8.12706,-1.43296 7.89676,-0.23493 2.86655,-14.91155 -4.16204,-12.14358 -3.93516,-14.25317 1.50537,-13.99712 5.0085,0.23572 11.85204,4.962 16.43489,11.35026 5.97086,8.32309 8.2654,9.50493 13.83403,7.12544 7.26939,-3.10622 23.64465,-4.55722 28.97568,-2.56751 9.84106,3.673 11.4447,3.20419 15.3625,-4.49111 3.51785,-6.90971 14.21569,-14.7681 16.70943,-12.27436 1.44957,1.44957 -0.90507,19.78249 -3.2101,24.99339 -2.56097,5.7895 -2.50813,6.21604 0.77165,6.22917 8.08526,0.0324 10.38726,1.06781 9.7326,4.37778 -1.81787,9.19117 -10.71555,21.61121 -15.48221,21.61121 -6.80559,0 -3.91972,12.98865 5.43867,24.47822 6.85989,8.4221 6.8937,13.3522 0.17831,26.00664 -3.41249,6.43046 -3.61737,7.34608 -3.61737,16.16584 0,9.3493 0,9.3493 -47.95469,9.3493 -47.95468,0 -47.95468,0 -48.64154,-3.66124 z"
         id="path4085"
         inkscape:connector-curvature="0" />
      <path
         style="fill:#d03f21"
         d="m 471.51272,370.79698 c -0.37777,-2.01368 -0.32956,-8.42618 0.10713,-14.25 0.873,-11.64274 0.89732,-13.63263 0.39823,-32.58876 -0.29298,-11.12774 -0.009,-14.25089 1.9704,-21.68551 2.31267,-8.6855 2.31267,-8.6855 -2.78343,-17.344 -6.80952,-11.56967 -6.90327,-11.39346 7.4039,-13.91609 8.12706,-1.43296 7.89676,-0.23493 2.86655,-14.91155 -4.16204,-12.14358 -3.93516,-14.25317 1.50537,-13.99712 5.0085,0.23572 11.85204,4.962 16.43489,11.35026 5.97086,8.32309 8.2654,9.50493 13.83403,7.12544 7.26939,-3.10622 23.64465,-4.55722 28.97568,-2.56751 9.84106,3.673 11.4447,3.20419 15.3625,-4.49111 3.51785,-6.90971 14.21569,-14.7681 16.70943,-12.27436 1.44957,1.44957 -0.90507,19.78249 -3.2101,24.99339 -2.56097,5.7895 -2.50813,6.21604 0.77165,6.22917 8.08526,0.0324 10.38726,1.06781 9.7326,4.37778 -1.81787,9.19117 -10.71555,21.61121 -15.48221,21.61121 -6.80559,0 -3.91972,12.98865 5.43867,24.47822 6.85989,8.4221 6.8937,13.3522 0.17831,26.00664 -3.41249,6.43046 -3.61737,7.34608 -3.61737,16.16584 0,9.3493 0,9.3493 -47.95469,9.3493 -47.95468,0 -47.95468,0 -48.64154,-3.66124 z m 36.76749,-93.99375 c 2.80225,-2.536 2.40339,-7.85188 -0.75395,-10.04833 -5.78865,-4.02695 -9.51152,-7.69199 -11.6149,-11.43446 -2.30516,-4.10146 -10.61563,-10.4563 -11.93131,-9.1236 -0.41341,0.41876 0.0926,3.79735 1.12436,7.50797 4.40428,15.83888 17.15507,28.5471 23.1758,23.09842 z m 58.95238,-10.58736 c 1.85105,-3.62836 4.42572,-19.54162 3.33775,-20.62959 -1.16043,-1.16043 -6.24113,4.05272 -9.72092,9.97431 -5.30666,9.03041 -5.2886,8.96585 -3.0136,10.77559 1.12148,0.89212 2.5731,2.66359 3.22583,3.93661 1.47063,2.86815 3.22716,1.71337 6.17094,-4.05692 z"
         id="path4083"
         inkscape:connector-curvature="0" />
      <path
         style="fill:#472115"
         d="m 471.61593,367.20822 c -0.36502,-3.9875 -0.20519,-10.85 0.35518,-15.25 0.56037,-4.4 0.78852,-15.425 0.50701,-24.5 -0.47169,-15.20541 -0.32505,-17.17651 1.869,-25.1224 2.41873,-8.75957 0.37596,-15.93317 -6.82184,-23.95634 -3.06607,-3.41766 1.58203,-6.02349 13.42335,-7.52543 6.21013,-0.78769 6.15167,0.45411 0.71518,-15.19052 -4.93331,-14.19663 -3.80675,-16.43605 5.94514,-11.818 5.00864,2.37186 8.68685,5.79074 13.91193,12.93109 3.69424,5.04836 6.7237,6.41909 10.33807,4.67764 1.5125,-0.72874 5,-1.68498 7.75,-2.12496 18.51454,-2.96224 17.52258,-2.98343 27.29559,0.58294 5.64511,2.06002 7.41779,1.04724 11.1671,-6.3801 3.89103,-7.70809 17.14049,-16.14126 17.0056,-10.82392 -0.15367,6.05771 -3.2015,21.28681 -4.94357,24.70154 -2.39025,4.68528 -2.12111,5.51867 1.81202,5.61093 10.27179,0.24093 10.25017,0.23371 9.54291,3.18753 -2.37492,9.91863 -9.65884,20.54332 -14.97736,21.8467 -6.26389,1.53505 -5.36781,11.93266 1.83785,21.32523 7.51702,9.79842 7.75986,10.26991 7.75986,15.06623 0,5.02932 -4.09678,14.59185 -8.08583,18.87359 -2.05867,2.20972 -2.69826,2.29976 -14.22366,2.00219 -12.06807,-0.31157 -12.06807,-0.31157 -13.87403,2.66224 -2.31282,3.80846 -2.27647,4.93264 0.27091,8.37816 1.14807,1.55284 1.93557,3.89252 1.75,5.19929 -0.40663,2.86356 -3.83411,3.9511 -3.84398,1.21969 -0.004,-1.00282 -0.90066,-3.17332 -1.99341,-4.82332 -2.56933,-3.87956 -2.56933,-9.5065 0,-12.77287 2.45384,-3.11955 2.45872,-2.83533 -0.12401,-7.21273 -4.30173,-7.2909 -9.39038,1.51223 -8.63942,14.94581 0.55077,9.85248 0.29308,11.53979 -1.76241,11.53979 -0.88102,0 -1.47427,-1.4951 -1.68638,-4.25 -0.32721,-4.25 -0.32721,-4.25 -2.16607,0 -1.94978,4.50634 -5.3756,6.12591 -4.23053,2 1.88826,-6.80374 1.92119,-6.53237 -0.73104,-6.02536 -2.06924,0.39556 -3.10105,-0.35009 -6.05252,-4.3739 -4.55091,-6.20434 -4.72999,-8.83092 -0.31001,-4.54691 5.13203,4.97416 6.6208,4.37031 13.05228,-5.29402 7.53279,-11.31921 7.20285,-12.53673 -4.58154,-16.90662 -5.49712,-2.03844 -11.82414,-8.62005 -13.48319,-14.02572 -1.59746,-5.20499 0.13036,-5.28733 3.64851,-0.17388 3.73055,5.42217 7.02654,8.10631 11.87881,9.67369 2.02814,0.65513 5.88086,2.78507 8.56161,4.73319 2.68075,1.94813 5.81977,3.61172 6.97559,3.69687 1.52332,0.11223 2.28695,1.0616 2.77557,3.45068 1.51462,7.40565 13.72805,11.55447 25.39458,8.62636 5.20482,-1.30633 2.61922,-2.88627 -3.76983,-2.30358 -13.99028,1.27593 -19.50344,-1.98019 -18.23593,-10.77029 0.39738,-2.75578 0.78178,-7.37301 0.85422,-10.26051 0.14024,-5.59 0.89048,-6.50352 2.64646,-3.22245 0.69956,1.30715 0.84386,5.00087 0.40612,10.39575 -0.83577,10.30044 -0.50893,10.5767 12.51339,10.5767 10.35314,0 12.44101,-1.15297 13.63752,-7.53095 1.10505,-5.89041 -1.06404,-7.30957 -7.8856,-5.15926 -2.94908,0.92962 -6.57575,1.69021 -8.05926,1.69021 -2.35685,0 -2.56663,0.24413 -1.6621,1.93426 1.50679,2.81546 1.39065,5.82121 -0.16482,4.26574 -0.66,-0.66 -2.235,-1.2 -3.5,-1.2 -2.96713,0 -3.16378,-3.59107 -0.24735,-4.51671 1.60718,-0.5101 1.80552,-0.94926 0.91391,-2.02358 -1.59596,-1.92302 -0.21925,-3.65156 2.3676,-2.97265 2.15425,0.56538 2.1538,0.55959 -0.0842,-1.08129 -4.37035,-3.20437 -2.99599,-6.40577 2.75,-6.40577 3.77778,0 5,0.36667 5,1.5 0,0.825 0.675,1.5 1.5,1.5 2.38523,0 1.74437,1.79675 -1.25,3.5046 -2.65372,1.51355 -2.66247,1.54501 -0.25,0.8984 7.53469,-2.01949 7.47434,-1.90175 3.58553,-6.99478 -5.9647,-7.81172 -7.88938,-14.43214 -7.11917,-24.48805 1.09789,-14.33401 1.41062,-13.98401 -12.32921,-13.79831 -6.40043,0.0865 -13.40402,-0.32603 -15.56353,-0.91676 -3.0543,-0.83548 -4.5188,-0.76769 -6.59362,0.30524 -7.61191,3.93627 -15.73179,2.95587 -23.28785,-2.8118 -6.56857,-5.0139 -13.53006,-7.10491 -21.04056,-6.31991 -8.27277,0.86467 -8.4164,1.29068 -3.28502,9.74277 7.03521,11.58795 11.76759,13.96423 22.88343,11.49054 4.63594,-1.03168 5.08333,0.64721 0.76723,2.87915 -4.99686,2.58398 -11.23503,2.97393 -15.46492,0.96671 -6.28291,-2.98144 -7.89995,3.0255 -8.2218,30.5422 -0.48537,41.49535 -0.62629,44 -2.47555,44 -1.36319,0 -1.81085,-1.38228 -2.34798,-7.25 z m 99.83432,-78.01343 c 7.38809,-9.87045 5.27212,-17.30299 -3.3413,-11.73657 -1.16663,0.75393 -0.88185,0.97278 1.28138,0.98469 3.59461,0.0198 4.42402,2.31036 2.09039,5.77303 -1.81451,2.69239 -1.85416,2.70134 -2.1795,0.49228 -0.34385,-2.33473 -2.58148,-2.92274 -5.08638,-1.33661 -1.32763,0.84068 -0.99171,7.84431 0.49134,10.24393 0.80508,1.30265 4.05428,-0.82721 6.74407,-4.42075 z m -47.98279,-9.61914 c 2.95397,-2.45158 1.74833,-15.11743 -1.43901,-15.11743 -0.5824,0 -0.78422,1.37618 -0.47663,3.25 0.3009,1.8331 -0.0799,4.55791 -0.87347,6.25 -1.40696,3 -1.40696,3 -1.48818,-0.10078 -0.19446,-7.42409 -4.06161,-12.74834 -4.10318,-5.64922 -0.0121,2.0625 -0.91208,5.71164 -2,8.1092 -1.08792,2.39757 -1.97804,4.44326 -1.97804,4.54599 0,0.91458 11.09828,-0.24186 12.35851,-1.28776 z m 20.3163,-0.70133 c 2.30634,-2.30635 2.52001,-3.12334 1.98912,-7.60588 -0.87229,-7.36511 -2.99931,-9.50983 -3.6958,-3.72656 -0.53188,4.41634 -0.53188,4.41634 -2.01096,-0.50398 -1.89065,-6.28944 -4.5486,-7.67974 -3.62365,-1.89543 0.34742,2.17267 0.18873,5.49477 -0.35265,7.38245 -0.65331,2.27795 -0.64746,3.54444 0.0174,3.76606 0.55095,0.18365 1.00173,1.42141 1.00173,2.75057 0,3.29097 3.29927,3.20831 6.67481,-0.16723 z m 12.39093,0.54872 c 1.20487,-0.64483 1.93426,-2.09034 1.93426,-3.83334 0,-3.92807 -1.12595,-4.60817 -3.18948,-1.92653 -1.76605,2.29505 -1.76605,2.29505 -1.78828,-1.83251 -0.021,-3.90206 -1.92873,-7.13262 -3.36425,-5.6971 -0.36189,0.3619 -0.65799,3.73299 -0.65799,7.49133 0,7.36436 1.63393,8.70517 7.06574,5.79815 z m -47.52029,-2.41937 c 4.34008,-4.34007 3.1094,-8.35787 -3.82668,-12.49293 -2.07968,-1.23983 -5.57786,-4.89989 -7.77373,-8.13346 -5.02396,-7.3981 -13.94504,-13.73554 -13.94504,-9.9064 0,9.10016 7.51538,22.95606 15.50272,28.58193 7.19435,5.06734 6.96987,5.02373 10.04273,1.95086 z m 22.32617,0.10924 c 3.01372,-3.63131 1.96709,-13.73513 -1.56312,-15.0898 -2.23491,-0.85762 -2.21502,-0.96023 -1.5878,8.19064 0.56705,8.27305 1.07949,9.39508 3.15092,6.89916 z m 36.27453,-10.66297 c 3.14934,-6.4 4.98121,-20.99172 2.63533,-20.99172 -2.0716,0 -6.5944,4.71116 -8.91954,9.29103 -1.17526,2.31494 -2.97184,5.27815 -3.99239,6.58493 -1.83677,2.35191 -1.82526,2.41046 1.13745,5.7848 1.64615,1.87485 2.993,3.87617 2.993,4.44736 0,2.85953 3.76265,-0.27271 6.14615,-5.1164 z m -86.15716,99.25828 c -0.006,-4.8125 -0.28993,-10.4375 -0.63084,-12.5 -0.75693,-4.57943 0.92546,-5.03602 3.09529,-0.84003 1.9693,3.8082 1.0554,22.09003 -1.10426,22.09003 -1.02861,0 -1.3518,-2.07906 -1.36019,-8.75 z m -0.51264,-34.72399 c -0.70701,-9.43022 -0.36699,-12.52601 1.37577,-12.52601 1.30968,0 2.41745,12.01956 1.6063,17.42873 -1.08356,7.22564 -2.21184,5.37066 -2.98207,-4.90272 z m 82.52365,8.27211 c 0,-2.43473 2.54661,-5.03208 4.55461,-4.64538 2.51597,0.48453 3.05199,3.44246 0.74381,4.10451 -0.98913,0.28371 -2.58592,0.84004 -3.54842,1.23628 -1.18189,0.48657 -1.75,0.26081 -1.75,-0.69541 z m -13.30784,-31.54812 c -0.23422,-0.4125 -1.2241,-3.225 -2.19973,-6.25 -0.97562,-3.025 -2.61054,-6.69447 -3.63315,-8.15437 -1.0226,-1.4599 -1.85928,-2.9224 -1.85928,-3.25 0,-1.05136 3.85763,-0.635 4.55385,0.4915 0.48382,0.78284 0.97617,0.78284 1.75902,0 2.55385,-2.55385 3.18713,-0.8819 3.18713,8.4145 0,8.50193 -0.51971,11.01689 -1.80784,8.74837 z m -29.23568,-1.31528 c -3.21193,-0.93386 -7.95328,-6.32187 -6.96718,-7.91741 2.08303,-3.37041 13.75223,-1.0772 17.47827,3.43479 3.06608,3.71284 -3.51121,6.51783 -10.51109,4.48262 z m 11.93581,-5.24292 c -2.38749,-3.24985 -4.57348,-4.80512 -9.43251,-6.711 -6.95191,-2.72677 -9.6009,-5.7198 -3.96719,-4.48243 10.73819,2.35851 13.41546,3.84328 16.2313,9.00163 4.34537,7.96032 2.4717,9.41064 -2.8316,2.1918 z m -35.39229,-12.00471 c 0,-1.82562 -4.92803,-6.34375 -8.3151,-7.62347 -4.63815,-1.75242 -5.98078,-1.39172 -5.43559,1.46025 0.66066,3.45598 -1.18083,4.27892 -3.41126,1.52446 -2.40553,-2.9707 -2.38278,-6.74066 0.0453,-7.51131 6.92229,-2.19706 22.67637,6.95598 20.72501,12.04112 -0.68609,1.78791 -3.60839,1.87615 -3.60839,0.10895 z"
         id="path4081"
         inkscape:connector-curvature="0" />
    </g>
  </g>
</svg>
